<?xml version="1.0" encoding="UTF-8"?>
<svg id="Layer_1" xmlns="http://www.w3.org/2000/svg" version="1.1" xmlns:xlink="http://www.w3.org/1999/xlink" viewBox="0 0 800 800">
  <!-- Generator: Adobe Illustrator 29.2.1, SVG Export Plug-In . SVG Version: 2.1.0 Build 116)  -->
  <defs>
    <style>
      .st0 {
        fill: url(#linear-gradient1);
        filter: url(#drop-shadow-1);
      }

      .st1 {
        fill: url(#linear-gradient2);
        filter: url(#drop-shadow-2);
      }

      .st2 {
        fill: url(#linear-gradient);
        stroke: #231f20;
        stroke-miterlimit: 10;
      }
    </style>
    <linearGradient id="linear-gradient" x1="154.14" y1="400.5" x2="635.23" y2="400.5" gradientUnits="userSpaceOnUse">
      <stop offset="0" stop-color="#fff"/>
      <stop offset="0" stop-color="#231f20"/>
    </linearGradient>
    <linearGradient id="linear-gradient1" x1="353.76" y1="243.73" x2="279.75" y2="515.7" gradientUnits="userSpaceOnUse">
      <stop offset="0" stop-color="#fff"/>
      <stop offset=".53" stop-color="#888a8c"/>
      <stop offset="1" stop-color="#231f20"/>
    </linearGradient>
    <filter id="drop-shadow-1" x="158.04" y="289.56" width="344.16" height="235.92" filterUnits="userSpaceOnUse">
      <feOffset dx="10" dy="9"/>
      <feGaussianBlur result="blur" stdDeviation="5"/>
      <feFlood flood-color="#231f20" flood-opacity=".25"/>
      <feComposite in2="blur" operator="in"/>
      <feComposite in="SourceGraphic"/>
    </filter>
    <linearGradient id="linear-gradient2" x1="598.76" y1="251.94" x2="529.63" y2="525.44" xlink:href="#linear-gradient1"/>
    <filter id="drop-shadow-2" x="471.96" y="296.52" width="171.36" height="236.16" filterUnits="userSpaceOnUse">
      <feOffset dx="10" dy="9"/>
      <feGaussianBlur result="blur1" stdDeviation="5"/>
      <feFlood flood-color="#231f20" flood-opacity=".25"/>
      <feComposite in2="blur1" operator="in"/>
      <feComposite in="SourceGraphic"/>
    </filter>
  </defs>
  <rect class="st2" x="154.14" y="159.95" width="481.09" height="481.09" rx="91" ry="91"/>
  <path class="st0" d="M353.55,418.3l-12.47,54.24c-1.8,7.83-2.69,12.89-2.69,15.2s.6,4.78,1.82,7.41c-9.6,4.2-18.23,6.3-25.87,6.3-3.41,0-5.62-1.87-6.44-2.28-20.29-10.11-101.1-31.72-100.34-35.04.4-1.75,23.59,1.28,102.31,16.68l14.68-64.74c-10.64-4.18-19.78-6.92-26.54-8.71-31.17-8.27-52.23-7.41-113.46-14.23-11.9-1.33-21.33-2.5-21.31-3.89.03-2.63,33.27-4.57,33.31-4.11.02.25-9.8,1.49-33.31,4.11,40.66-6.16,90.65-7.09,144.01,8.27,6.87,1.98,13.5,4.14,19.9,6.45l9.7-42.74c2.32-4.63,5.2-11.66,2.39-14.95-4.27-4.99-18.46,2.34-40.68,8.86-9.05,2.66-20.7,4.77-44,9-31.54,5.73-68.67,9.86-69,8-.31-1.71,30.13-9.48,150.32-33.77,12.4-4.12,21.02-6.18,25.87-6.18,5.78,0,8.67,2.96,8.67,8.9,0,1.4-1.52,8.61-4.55,21.62l-9.66,43.49c26.79,0,48.71-5.85,65.73-17.54,17.03-11.69,25.54-26.69,25.54-44.97,0-10.05-4.45-18.14-13.35-24.28-8.9-6.14-20.68-9.2-35.31-9.2-37.82,0-65.36,15.28-65.36,15.28-14.81,6.6-33.28,13.39-55.06,18.35-17.02,3.88-32.59,5.84-46.07,6.75,8.07-5.5,15.06-8.65,19.92-10.51,3.87-1.48,3.35-.98,15.66-5.11,7.84-2.63,10.1-3.52,16.66-5.63,6.56-2.11,9.82-2.99,12.77-3.9,6.53-2.01,15.81-5.46,27.26-11.74,1.94-.95,3.3-1.67,3.68-1.83,25.22-10.75,52.51-16.12,81.88-16.12,44.56,0,66.85,14.5,66.85,43.49s-25.17,48.02-34.7,55.47c-33.97,26.59-74.61,24.87-88.73,23.6ZM190.38,424.2c15.5.61,30.99,1.22,46.49,1.84,28.34,3.72,56.67,7.44,85.01,11.15-1.29,5.69-2.58,11.39-3.87,17.08"/>
  <path class="st1" d="M618.22,477.01c-3.08,8.07-6.71,13.96-10.91,17.67-4.2,3.71-14.8,6.94-31.82,9.7-17.01,2.76-34.99,4.14-53.91,4.14-29.74,0-44.61-8.98-44.61-26.93,0-5.02,1.58-14.54,4.75-28.54l27.27-121.33c1.58-7,2.38-12.02,2.38-15.07,0-2.8-1.12-5.39-3.36-7.78,12.4-4.12,21.02-6.18,25.87-6.18,5.78,0,8.67,2.92,8.67,8.77,0,1.48-1.54,8.73-4.61,21.75l-24.33,108.35c-3.54,15.57-5.31,26.4-5.31,32.49,0,10.3,12.91,15.44,38.74,15.44,23.03,0,46.75-4.16,71.18-12.48Z"/>
</svg>